<svg width="48" height="48" viewBox="0 0 48 48" fill="none" xmlns="http://www.w3.org/2000/svg">
<path d="M8.88878 0.0346363C9.13645 0.0348086 9.38412 0.0345484 9.6318 0.0343494C10.1178 0.0340267 10.6039 0.0341005 11.0899 0.0343121C11.4901 0.0344754 11.8902 0.0344686 12.2904 0.0343517C12.3481 0.0343348 12.4058 0.034318 12.4652 0.0343007C12.5827 0.0342657 12.7003 0.0342305 12.8178 0.034195C14.1835 0.033809 15.5493 0.0342267 16.915 0.0348204C17.3629 0.0350138 17.8108 0.0351739 18.2587 0.0353142C21.8157 0.0364365 25.3728 0.0392266 28.9299 0.0437212C29.3006 0.0441878 29.6713 0.0446293 30.042 0.0450544C32.2578 0.0476047 34.4736 0.0519204 36.6893 0.0607057C37.1662 0.0625318 37.6431 0.0636271 38.12 0.0644002C38.6877 0.0653349 39.2554 0.0672769 39.8232 0.0706297C40.1029 0.0722634 40.3825 0.0734902 40.6622 0.0734122C42.2551 0.0734596 43.917 0.120394 45.2137 1.23139C45.2753 1.28313 45.3369 1.33486 45.4004 1.38817C46.3292 2.17663 47.0897 3.08846 47.54 4.2732C47.54 4.32217 47.54 4.37114 47.54 4.42158C47.5865 4.44607 47.633 4.47055 47.681 4.49578C48.0008 5.47849 48.0037 6.5683 47.9983 7.59405C47.9986 7.74241 47.999 7.89077 47.9995 8.03913C48.0005 8.44203 47.9998 8.84492 47.9988 9.24782C47.998 9.68416 47.9988 10.1205 47.9995 10.5568C48.0005 11.4096 47.9999 12.2624 47.9989 13.1152C47.998 13.8085 47.9978 14.5017 47.9979 15.195C47.998 15.2691 47.998 15.2691 47.998 15.3447C47.998 15.5453 47.9981 15.7459 47.9981 15.9465C47.9986 17.8246 47.9975 19.7026 47.9957 21.5807C47.9941 23.247 47.9937 24.9133 47.9944 26.5795C47.9946 27.0066 47.9948 27.4336 47.9949 27.8606C47.995 27.9132 47.995 27.9658 47.995 28.02C47.9955 29.4153 47.9951 30.8106 47.9943 32.206C47.9942 32.3562 47.9942 32.5064 47.9941 32.6566C47.994 32.7562 47.994 32.8559 47.9939 32.9555C47.9935 33.6975 47.9936 34.4395 47.9939 35.1815C47.9943 36.0253 47.9939 36.8691 47.9925 37.713C47.9918 38.1431 47.9914 38.5733 47.992 39.0035C47.9925 39.3978 47.992 39.7921 47.9907 40.1863C47.9904 40.3284 47.9905 40.4706 47.991 40.6127C47.996 42.2791 47.7437 44.1089 46.6236 45.3748C46.5472 45.4707 46.4708 45.5665 46.3945 45.6623C45.2952 46.974 43.8287 47.7635 42.1824 47.9715C41.9735 47.9815 41.7648 47.9817 41.5557 47.9813C41.4939 47.9814 41.4322 47.9816 41.3685 47.9817C41.1614 47.9821 40.9542 47.982 40.7471 47.9819C40.5971 47.9821 40.4472 47.9823 40.2972 47.9826C39.885 47.9832 39.4727 47.9833 39.0605 47.9834C38.6159 47.9835 38.1714 47.9841 37.7268 47.9846C36.7039 47.9856 35.681 47.9861 34.6581 47.9864C34.1523 47.9866 33.6465 47.9869 33.1408 47.9871C31.4087 47.9881 29.6767 47.9889 27.9446 47.9891C27.8359 47.9891 27.7272 47.9892 27.6186 47.9892C27.5096 47.9892 27.4006 47.9892 27.2917 47.9892C27.0731 47.9893 26.8545 47.9893 26.636 47.9893C26.5818 47.9893 26.5276 47.9893 26.4717 47.9894C24.7153 47.9896 22.9588 47.9908 21.2023 47.9925C19.3442 47.9944 17.4861 47.9954 15.628 47.9955C15.4239 47.9955 15.2198 47.9955 15.0156 47.9955C14.9402 47.9955 14.9402 47.9955 14.8633 47.9955C14.0558 47.9956 13.2483 47.9964 12.4408 47.9975C11.6285 47.9986 10.8162 47.9988 10.0039 47.9982C9.56419 47.9979 9.12447 47.998 8.68474 47.999C8.28166 48 7.8786 47.9999 7.47553 47.999C7.33022 47.9988 7.18491 47.9991 7.0396 47.9997C6.01595 48.004 5.01236 47.9631 4.05389 47.5403C4.01087 47.5213 3.96786 47.5023 3.92354 47.4828C3.46129 47.273 3.03615 47.019 2.64401 46.6871C2.50464 46.5521 2.50464 46.5521 2.34 46.5248C2.29784 46.5125 2.25567 46.5003 2.21223 46.4877C2.16523 46.3888 2.11824 46.2899 2.07124 46.1909C1.93312 46.0637 1.79217 45.9399 1.64828 45.82C1.50729 45.6716 1.50729 45.6716 1.41476 45.5047C1.29948 45.2929 1.29948 45.2929 1.12838 45.1059C0.877202 44.799 0.590863 44.3035 0.590863 43.891C0.521073 43.891 0.451284 43.891 0.37938 43.891C0.37211 43.813 0.364841 43.7349 0.357351 43.6545C0.314538 43.2875 0.231524 42.9326 0.148071 42.5738C0.0510819 42.1128 0.0165885 41.6656 0.0176439 41.1944C0.0174268 41.1035 0.017427 41.1034 0.0172055 41.0106C0.016807 40.8075 0.0169085 40.6043 0.0170087 40.4011C0.0168265 40.254 0.0166141 40.1068 0.016374 39.9597C0.0158057 39.5553 0.0156791 39.1509 0.015627 38.7465C0.0154965 38.3103 0.0149643 37.8742 0.0144895 37.438C0.0134824 36.4345 0.0130721 35.431 0.0127491 34.4275C0.0125843 33.9314 0.0123302 33.4352 0.0120655 32.939C0.0111608 31.2397 0.0104047 29.5404 0.0101616 27.8412C0.010146 27.7345 0.0101305 27.6279 0.0101148 27.5213C0.0100993 27.4144 0.0100841 27.3075 0.0100686 27.2006C0.0100374 26.9862 0.0100056 26.7718 0.0099739 26.5574C0.00996618 26.5042 0.00995871 26.451 0.00995077 26.3963C0.00969492 24.6731 0.00857274 22.9499 0.00692925 21.2267C0.0051938 19.4038 0.00422802 17.5809 0.00414384 15.758C0.00413175 15.5577 0.00411665 15.3574 0.0040992 15.1571C0.0040933 15.0832 0.00409338 15.0832 0.00408737 15.0077C0.0040114 14.2645 0.0033524 13.5213 0.00239429 12.7782C0.00130762 11.9323 0.00094833 11.0864 0.00153 10.2405C0.00180504 9.80914 0.00174117 9.37776 0.000750146 8.94639C-0.000149939 8.55097 -6.1336e-05 8.15556 0.000792096 7.76014C0.000929697 7.6176 0.000714866 7.47505 9.82981e-05 7.33251C-0.00824219 5.2728 0.513407 3.52059 1.85976 1.97329C2.79185 1.00881 2.79185 1.00881 3.12865 1.00881C3.15192 0.959848 3.17518 0.910883 3.19915 0.860433C3.37138 0.766771 3.54254 0.679859 3.71904 0.596129C3.76739 0.57265 3.81573 0.549171 3.86554 0.524981C5.35184 -0.191709 7.29391 0.0329956 8.88878 0.0346363ZM3.26358 3.80864C2.34353 4.95281 2.18926 6.18474 2.19527 7.64014C2.19521 7.75236 2.19509 7.86459 2.19491 7.97681C2.1946 8.28254 2.19515 8.58826 2.19586 8.89398C2.19648 9.22467 2.19627 9.55535 2.19616 9.88603C2.19609 10.4581 2.19653 11.0301 2.19732 11.6022C2.19847 12.4293 2.19884 13.2563 2.19901 14.0834C2.19932 15.4255 2.20026 16.7676 2.20159 18.1096C2.20289 19.4129 2.20389 20.7161 2.20448 22.0194C2.20452 22.0998 2.20456 22.1802 2.2046 22.263C2.20478 22.6665 2.20496 23.0699 2.20513 23.4733C2.20659 26.817 2.20908 30.1607 2.21223 33.5043C2.49222 33.5683 2.72763 33.5791 3.01438 33.5585C3.15118 33.5493 3.15118 33.5493 3.29074 33.5398C3.36402 33.5345 3.36402 33.5345 3.43877 33.5292C3.70387 33.5102 3.96906 33.4929 4.23426 33.4756C4.2912 33.4719 4.34813 33.4682 4.4068 33.4644C5.15817 33.4162 5.91017 33.3817 6.66217 33.3467C6.73215 33.3434 6.80212 33.3401 6.87421 33.3367C7.27055 33.3182 7.66689 33.2999 8.06325 33.2818C8.03998 33.2328 8.01672 33.1838 7.99275 33.1334C8.01602 33.1334 8.03928 33.1334 8.06325 33.1334C8.06325 30.5137 8.06325 27.894 8.06325 25.195C7.31883 25.195 6.57441 25.195 5.80743 25.195C5.80743 25.146 5.80743 25.097 5.80743 25.0466C5.85396 25.0466 5.90049 25.0466 5.94842 25.0466C6.06591 24.9477 6.06591 24.9477 6.1599 24.824C6.1599 24.7751 6.1599 24.7261 6.1599 24.6756C6.21715 24.6508 6.21715 24.6508 6.27556 24.6255C6.49473 24.496 6.66595 24.323 6.84722 24.1424C6.92272 24.0683 6.99826 23.9943 7.07385 23.9204C7.12876 23.8665 7.12876 23.8665 7.18479 23.8115C7.44811 23.555 7.71917 23.3071 7.99578 23.0666C8.04131 23.0268 8.08683 22.9871 8.13374 22.9461C8.19481 22.8937 8.19481 22.8937 8.25711 22.8403C8.36176 22.7511 8.36176 22.7511 8.34522 22.5983C8.40356 22.5719 8.40356 22.5719 8.46308 22.545C8.66722 22.4267 8.82424 22.2801 8.99729 22.1161C9.09162 22.0277 9.09162 22.0277 9.18785 21.9375C9.34857 21.8007 9.34857 21.8007 9.33214 21.6338C9.37267 21.6277 9.4132 21.6216 9.45496 21.6153C9.6618 21.543 9.75641 21.4292 9.90491 21.2629C10.1661 20.9724 10.1661 20.9724 10.3191 20.8919C10.397 20.496 10.3979 20.1075 10.394 19.7046C10.3937 19.6421 10.3934 19.5797 10.3932 19.5154C10.3923 19.3173 10.391 19.1193 10.3896 18.9212C10.3877 18.6599 10.3863 18.3986 10.3851 18.1373C10.3843 18.0482 10.3843 18.0482 10.3834 17.9574C10.3831 17.9012 10.3829 17.845 10.3827 17.787C10.3823 17.7382 10.3819 17.6894 10.3816 17.639C10.3917 17.4358 10.4283 17.2348 10.46 17.034C11.0184 17.034 11.5767 17.034 12.1519 17.034C12.1519 16.985 12.1519 16.9361 12.1519 16.8856C12.1984 16.8856 12.245 16.8856 12.2929 16.8856C12.2929 16.9346 12.2929 16.9835 12.2929 17.034C12.3394 17.0585 12.3859 17.083 12.4339 17.1082C12.4339 17.677 12.4339 18.2458 12.4339 18.8146C12.6496 18.8389 12.6496 18.8389 12.785 18.6868C12.8363 18.6295 12.8877 18.5722 12.9406 18.5132C13.1834 18.2489 13.4311 18.0014 13.6959 17.762C13.8649 17.6083 14.0306 17.4512 14.1962 17.2937C14.4033 17.097 14.6112 16.9017 14.8219 16.7094C15.0226 16.5258 15.2189 16.3377 15.414 16.1474C15.7789 15.7916 16.1522 15.4538 16.5402 15.1256C16.8206 14.8812 17.0867 14.6217 17.3533 14.3608C17.5095 14.2148 17.5095 14.2148 17.6505 14.1406C17.6505 14.0916 17.6505 14.0426 17.6505 13.9922C17.9595 14.1684 18.1953 14.3888 18.4479 14.6414C18.529 14.7211 18.6102 14.8008 18.6913 14.8804C18.7304 14.9189 18.7694 14.9574 18.8096 14.997C18.9525 15.1377 19.0958 15.2776 19.241 15.4157C19.2818 15.455 19.3226 15.4943 19.3646 15.5348C19.4798 15.6346 19.4798 15.6346 19.6306 15.656C19.6751 15.67 19.7195 15.6841 19.7653 15.6986C19.8137 15.7967 19.8604 15.8958 19.9063 15.9953C20.036 16.1325 20.1654 16.2616 20.3028 16.3895C20.341 16.4257 20.3792 16.4619 20.4186 16.4991C20.6675 16.7344 20.9189 16.9667 21.1719 17.1972C21.3472 17.3595 21.5187 17.5261 21.6907 17.6924C22.0154 18.0048 22.3513 18.2981 22.6941 18.5882C22.8446 18.7206 22.9821 18.8563 23.1182 19.0047C23.1749 19.0644 23.2316 19.124 23.29 19.1855C23.3365 19.1855 23.383 19.1855 23.431 19.1855C23.431 19.2345 23.431 19.2835 23.431 19.3339C23.5361 19.4326 23.6458 19.5258 23.757 19.6168C24.0851 19.8924 24.3947 20.1805 24.6999 20.4839C25.0551 20.8363 25.4192 21.1653 25.8002 21.4866C25.9948 21.6566 26.1701 21.8392 26.346 22.03C26.6303 22.3313 26.9447 22.5995 27.2517 22.8745C27.3352 22.9493 27.4186 23.0242 27.502 23.0991C27.5445 23.1372 27.5871 23.1754 27.6309 23.2147C27.909 23.4656 28.1809 23.7223 28.4493 23.9847C28.776 24.3029 29.1123 24.6032 29.4588 24.8971C29.686 25.0904 29.9071 25.2903 30.1279 25.4917C30.0843 25.5009 30.0407 25.5101 29.9958 25.5196C29.8325 25.5564 29.8325 25.5564 29.705 25.7143C29.705 25.5659 29.6584 25.6164 29.6345 25.5659C29.0064 25.5659 28.3783 25.5659 27.7311 25.5659C27.6729 26.0155 27.6729 26.0155 27.6522 26.459C27.6521 26.5103 27.652 26.5617 27.6519 26.6147C27.6521 26.6687 27.6524 26.7228 27.6526 26.7785C27.6526 26.8665 27.6526 26.8665 27.6526 26.9564C27.6526 27.1482 27.6532 27.3401 27.6537 27.532C27.6539 27.6659 27.654 27.7997 27.6541 27.9336C27.6543 28.2844 27.655 28.6352 27.6558 28.986C27.6565 29.3445 27.6568 29.7031 27.6572 30.0617C27.6579 30.7641 27.6591 31.4665 27.6606 32.1689C27.4197 32.2729 27.192 32.3515 26.937 32.4077C26.8684 32.4233 26.7999 32.4389 26.7293 32.4549C26.5855 32.487 26.4415 32.5189 26.2976 32.5506C26.2294 32.5662 26.1613 32.5817 26.091 32.5978C25.9975 32.6185 25.9975 32.6185 25.9021 32.6397C25.8543 32.6557 25.8065 32.6717 25.7573 32.6882C25.734 32.7372 25.7108 32.7862 25.6868 32.8366C25.617 32.8611 25.5472 32.8856 25.4753 32.9108C25.4753 32.4409 25.4753 31.9711 25.4753 31.5012C25.4551 31.3569 25.4968 32.8323 25.4753 32.6882C25.4668 32.5274 25.4048 30.9077 25.4389 30.7382C25.4771 30.527 25.4844 30.3337 25.4847 30.1188C25.4848 30.0016 25.4848 30.0016 25.4849 29.882C25.4847 29.8012 25.4844 29.7204 25.4841 29.6371C25.4844 29.5558 25.4847 29.4744 25.4849 29.3905C25.4849 29.3126 25.4848 29.2346 25.4847 29.1543C25.4846 29.0833 25.4845 29.0122 25.4844 28.939C25.4825 28.746 25.5627 28.7759 25.4849 28.5634C25.5066 28.4394 25.4502 28.2859 25.4753 28.1626C25.4816 28.0234 25.4845 27.884 25.4847 27.7447C25.4848 27.6275 25.4848 27.6275 25.4849 27.5079C25.4847 27.4271 25.4844 27.3463 25.4841 27.263C25.4844 27.1817 25.4847 27.1003 25.4849 27.0164C25.4849 26.9385 25.4848 26.8605 25.4847 26.7802C25.4846 26.7091 25.4845 26.6381 25.4844 26.5649C25.4825 26.3719 25.4825 26.3719 25.4048 26.1595C25.4151 25.897 25.4328 25.6365 25.453 25.3748C25.4752 25.051 25.4577 24.7745 25.4048 24.4531C25.4254 24.3534 25.4484 24.2543 25.4753 24.1563C24.9398 23.6216 24.4055 23.0953 23.8283 22.6105C23.5548 22.3742 23.2962 22.1218 23.0369 21.8686C22.8908 21.7305 22.7419 21.6092 22.585 21.4854C22.4607 21.3692 22.3374 21.2516 22.215 21.133C21.9504 20.8781 21.6848 20.625 21.4136 20.3778C21.2687 20.2452 21.1246 20.1117 20.9808 19.9779C20.884 19.8884 20.7873 19.7989 20.6905 19.7095C20.6435 19.6655 20.5964 19.6216 20.5479 19.5762C20.5036 19.5354 20.4592 19.4945 20.4135 19.4524C20.3735 19.4153 20.3336 19.3782 20.2924 19.34C20.1908 19.2451 20.1908 19.2451 20.0473 19.2597C20.024 19.1863 20.0007 19.1128 19.9768 19.0371C19.8689 18.9351 19.7565 18.8386 19.6419 18.745C19.3248 18.4794 19.025 18.2026 18.7299 17.9104C18.4082 17.5927 18.082 17.3023 17.721 17.034C17.6493 17.104 17.6493 17.104 17.5761 17.1754C17.1854 17.5536 16.7909 17.913 16.3675 18.2512C16.3256 18.2902 16.2837 18.3292 16.2406 18.3694C16.2406 18.4184 16.2406 18.4674 16.2406 18.5178C16.201 18.5359 16.1613 18.554 16.1205 18.5726C15.9276 18.6841 15.7853 18.8195 15.6237 18.9769C15.5612 19.0371 15.4987 19.0974 15.4343 19.1594C15.3747 19.217 15.3151 19.2746 15.2537 19.3339C14.9963 19.5753 14.7357 19.8126 14.4724 20.0468C13.9733 20.492 13.4881 20.9488 13.0117 21.4207C12.7498 21.6801 12.4853 21.9346 12.2128 22.1816C12.0582 22.3227 11.9069 22.4674 11.7554 22.6122C11.4168 22.9341 11.0711 23.2467 10.7233 23.5573C10.6115 23.6574 10.5005 23.7584 10.3896 23.8595C10.3508 23.8928 10.3121 23.926 10.2722 23.9602C10.1438 24.1264 10.1518 24.2322 10.1522 24.4449C10.1518 24.5197 10.1514 24.5944 10.151 24.6715C10.1516 24.7535 10.1523 24.8355 10.1529 24.9199C10.1528 25.0063 10.1527 25.0927 10.1525 25.1817C10.1523 25.4681 10.1536 25.7545 10.1549 26.0409C10.1552 26.2395 10.1553 26.4381 10.1553 26.6366C10.1556 27.0532 10.1567 27.4698 10.1582 27.8863C10.1603 28.4208 10.161 28.9553 10.1613 29.4898C10.1616 29.9 10.1623 30.3102 10.1631 30.7204C10.1636 30.9175 10.1639 31.1145 10.1642 31.3116C10.1646 31.587 10.1656 31.8623 10.1667 32.1376C10.1668 32.2603 10.1668 32.2603 10.167 32.3856C10.1674 32.4606 10.1678 32.5355 10.1682 32.6128C10.1685 32.7105 10.1685 32.7105 10.1688 32.8101C10.1777 32.977 10.2042 33.1216 10.2486 33.2818C10.416 33.302 10.5834 33.3221 10.7508 33.342C10.807 33.3488 10.8631 33.3555 10.921 33.3624C11.2723 33.4037 11.6238 33.4409 11.9759 33.4739C14.1279 33.6791 16.2427 34.0325 18.3435 34.5639C18.6196 34.6298 18.8969 34.6824 19.1762 34.7307C19.536 34.8062 19.8626 34.9618 20.1882 35.1365C20.1491 35.1554 20.1099 35.1743 20.0696 35.1938C17.9496 36.2234 15.905 37.4465 13.9848 38.8461C13.9389 38.8795 13.893 38.9129 13.8458 38.9473C12.4181 39.9907 11.0204 41.0735 9.70582 42.271C9.50193 42.4563 9.29464 42.6366 9.08541 42.8153C8.41343 43.3904 7.76136 43.9871 7.12397 44.6042C6.86517 44.8472 6.59528 45.0742 6.32292 45.3001C6.17086 45.439 6.0657 45.5751 5.94842 45.7458C6.23569 45.7513 6.52293 45.7553 6.81024 45.758C6.90795 45.7591 7.00566 45.7607 7.10337 45.7626C7.24386 45.7653 7.38439 45.7664 7.5249 45.7675C7.65171 45.7693 7.65171 45.7693 7.78108 45.7711C7.99169 45.7645 7.99169 45.7645 8.12773 45.6424C8.21739 45.5267 8.21739 45.5267 8.20424 45.3748C8.26686 45.3625 8.26686 45.3625 8.33075 45.3499C8.50233 45.2955 8.58527 45.231 8.7178 45.1059C8.76059 45.0661 8.80339 45.0262 8.84748 44.9852C8.89256 44.9424 8.93763 44.8996 8.98408 44.8555C9.07965 44.7665 9.1753 44.6777 9.27101 44.5889C9.34111 44.5236 9.34111 44.5236 9.41262 44.457C9.64133 44.246 9.87714 44.0447 10.1136 43.8435C10.2676 43.7123 10.4205 43.5802 10.5729 43.447C11.2148 42.8886 11.8761 42.3677 12.555 41.8604C12.7153 41.7399 12.8746 41.6181 13.0336 41.4958C14.8261 40.1176 16.7108 38.892 18.6374 37.7332C18.6965 37.6973 18.7557 37.6613 18.8166 37.6243C19.8536 36.9963 20.9306 36.469 22.0211 35.9526C22.0923 35.9186 22.1635 35.8847 22.2368 35.8497C26.0271 34.0464 30.0413 33.069 34.1461 32.4657C34.1461 32.4167 34.1461 32.3677 34.1461 32.3173C34.1926 32.3418 34.2391 32.3662 34.2871 32.3915C34.448 32.3884 34.6087 32.3795 34.7693 32.368C34.8191 32.3644 34.8689 32.3609 34.9202 32.3572C35.4398 32.3184 35.9582 32.2656 36.4767 32.2128C38.8128 31.9751 41.1457 31.8731 43.4908 31.7989C43.7576 31.7904 44.0243 31.7819 44.291 31.7733C44.81 31.7567 45.3291 31.7402 45.8481 31.7238C45.8497 28.6035 45.851 25.4833 45.8517 22.3631C45.8518 21.9945 45.8519 21.6258 45.852 21.2572C45.852 21.1838 45.852 21.1104 45.8521 21.0348C45.8524 19.8476 45.8529 18.6604 45.8536 17.4733C45.8542 16.2544 45.8546 15.0356 45.8548 13.8168C45.8549 13.0652 45.8552 12.3136 45.8557 11.5619C45.8561 11.046 45.8562 10.5301 45.8561 10.0141C45.8561 9.71679 45.8562 9.41946 45.8565 9.12212C45.8569 8.84924 45.8569 8.57635 45.8567 8.30347C45.8566 8.15938 45.8569 8.01529 45.8572 7.8712C45.8546 6.22625 45.6588 5.00373 44.5897 3.75619C44.4489 3.61611 44.3338 3.53487 44.1563 3.45711C44.1563 3.40814 44.1563 3.35917 44.1563 3.30872C42.6983 2.23127 40.9583 2.39591 39.2592 2.40392C39.0444 2.40473 38.8297 2.4047 38.615 2.40466C38.4053 2.40468 38.1955 2.40509 37.9857 2.40562C37.8869 2.40585 37.7881 2.406 37.6893 2.40606C37.1331 2.40672 36.5836 2.42468 36.0295 2.47771C35.7806 2.49709 35.5489 2.48451 35.3004 2.46017C34.9704 2.42893 34.9704 2.42893 34.6396 2.41844C34.5023 2.41758 34.3651 2.41671 34.2279 2.41583C34.0611 2.41514 33.8943 2.41446 33.7275 2.4138C33.6014 2.41287 33.6014 2.41287 33.4727 2.41192C33.3919 2.41168 33.311 2.41144 33.2277 2.41119C33.1538 2.4108 33.0798 2.41041 33.0036 2.41001C32.812 2.41087 32.812 2.41087 32.6526 2.46062C32.5247 2.49263 32.5247 2.49263 32.3132 2.41844C32.2086 2.45516 32.2086 2.45516 32.1018 2.49263C32.0072 2.47056 31.9132 2.44562 31.8198 2.41844C31.7257 2.41199 31.6313 2.40895 31.537 2.40884C31.4547 2.40849 31.4547 2.40849 31.3707 2.40813C31.2823 2.40835 31.2823 2.40835 31.1922 2.40858C31.1306 2.40851 31.0691 2.40844 31.0056 2.40837C30.8751 2.40832 30.7445 2.40845 30.614 2.40876C30.4172 2.40916 30.2205 2.40877 30.0237 2.40829C29.4038 2.40813 28.7922 2.41644 28.1751 2.48397C28.0131 2.49263 28.0131 2.49263 27.8721 2.41844C27.7674 2.45516 27.7674 2.45516 27.6606 2.49263C27.5428 2.4989 27.4247 2.5008 27.3068 2.50018C27.2332 2.49998 27.1597 2.49978 27.0839 2.49957C27.0028 2.49896 26.9217 2.49836 26.8382 2.49773C26.7093 2.49722 26.7093 2.49722 26.5778 2.49669C26.3388 2.49566 26.0998 2.49429 25.8608 2.49279C25.6032 2.49125 25.3455 2.49015 25.0879 2.489C24.6411 2.48696 24.1942 2.48466 23.7474 2.4822C23.1 2.47865 22.4526 2.47566 21.8052 2.47283C20.7531 2.46825 19.7009 2.46343 18.6488 2.45838C18.5857 2.45807 18.5227 2.45777 18.4578 2.45746C17.5657 2.45316 16.6737 2.44863 15.7816 2.444C15.7189 2.44368 15.6562 2.44335 15.5916 2.44302C15.529 2.44269 15.4664 2.44237 15.4019 2.44203C14.355 2.43661 13.3081 2.43179 12.2612 2.42745C11.6162 2.42476 10.9713 2.42157 10.3263 2.41773C9.88324 2.41513 9.44018 2.41309 8.99711 2.41149C8.7421 2.41055 8.4871 2.40936 8.2321 2.40749C5.51256 2.35076 5.51256 2.35076 3.26358 3.80864ZM39.8212 36.8397C39.7432 36.8729 39.6653 36.9062 39.585 36.9404C39.5014 36.9771 39.4179 37.0138 39.3318 37.0516C39.2676 37.0796 39.2676 37.0796 39.202 37.1081C37.8021 37.7188 36.5033 38.4736 35.2035 39.2912C35.0902 39.3616 34.977 39.4321 34.8637 39.5025C32.8682 40.7534 30.969 42.2619 29.2074 43.8531C29.0111 44.0294 28.8125 44.202 28.6123 44.3733C28.52 44.4527 28.52 44.4527 28.4259 44.5338C28.3181 44.6266 28.2102 44.7194 28.1019 44.8117C27.9734 44.9215 27.8456 45.0322 27.7179 45.143C27.6772 45.1775 27.6365 45.2119 27.5945 45.2475C27.495 45.3345 27.401 45.4284 27.3082 45.5232C27.3082 45.5967 27.3082 45.6701 27.3082 45.7458C28.6165 45.9131 28.6165 45.9131 29.7816 45.4684C29.9328 45.2982 30.0658 45.1161 30.1984 44.9297C30.3802 44.7649 30.5627 44.6246 30.7624 44.4845C30.7624 44.4356 30.7624 44.3866 30.7624 44.3362C30.8043 44.3157 30.8462 44.2952 30.8894 44.2741C31.0361 44.1924 31.1446 44.1088 31.2685 43.9936C31.3102 43.9551 31.352 43.9167 31.395 43.877C31.4613 43.8151 31.4613 43.8151 31.529 43.7519C31.6239 43.6644 31.7188 43.5768 31.8137 43.4893C31.8617 43.4449 31.9097 43.4005 31.9592 43.3548C34.5764 40.9409 37.3836 38.5729 40.4201 36.7687C40.1529 36.675 40.0784 36.7295 39.8212 36.8397ZM30.9576 37.3083C30.9083 37.3261 30.859 37.3438 30.8081 37.3621C30.6473 37.4203 30.4867 37.4793 30.3262 37.5384C30.2149 37.5791 30.1036 37.6197 29.9923 37.6603C29.319 37.9072 28.6486 38.1615 27.9823 38.4287C27.9116 38.4569 27.8409 38.485 27.7681 38.514C27.3442 38.6871 26.9413 38.8856 26.5396 39.11C26.3632 39.1965 26.1984 39.2619 26.0139 39.3239C25.6998 39.4307 25.4111 39.5685 25.1168 39.7248C25.039 39.7654 25.039 39.7654 24.9597 39.8069C24.7936 39.8942 24.6277 39.9821 24.462 40.0702C24.4052 40.1002 24.3484 40.1302 24.2899 40.1612C23.4964 40.5809 22.7158 41.0147 21.9559 41.4991C21.8032 41.5951 21.6491 41.6879 21.4943 41.7801C20.1691 42.5699 18.8885 43.4374 17.6539 44.3758C17.4977 44.4934 17.3402 44.609 17.1823 44.7242C17.128 44.764 17.0736 44.8038 17.0177 44.8448C16.9143 44.9205 16.8108 44.9959 16.707 45.071C16.4296 45.2751 16.1901 45.4856 15.9586 45.7458C16.1331 45.6723 16.1331 45.6723 16.3111 45.5974C16.3343 45.6464 16.3576 45.6953 16.3816 45.7458C16.6738 45.7501 16.9661 45.7527 17.2583 45.7551C17.3815 45.7569 17.3815 45.7569 17.5071 45.7588C18.4024 45.7769 18.4024 45.7769 19.1661 45.347C19.4657 45.0776 19.7731 44.8332 20.0957 44.5958C20.1463 44.5586 20.197 44.5213 20.2491 44.4829C20.3583 44.4027 20.4676 44.3225 20.5769 44.2424C20.7611 44.1071 20.9446 43.9707 21.1281 43.8342C22.0465 43.1534 22.9818 42.5059 23.9318 41.8751C24.12 41.7501 24.3077 41.6244 24.4953 41.4984C26.5485 40.1213 28.6626 38.8628 30.8447 37.7264C31.0525 37.618 31.2599 37.5086 31.4673 37.3993C31.5848 37.3375 31.7023 37.2757 31.8198 37.2139C31.8198 37.1894 31.8198 37.1649 31.8198 37.1397C31.5067 37.1168 31.2491 37.2007 30.9576 37.3083Z" fill="white"/>
<path d="M34.0781 4.44099C34.1299 4.47283 34.1817 4.50467 34.2351 4.53747C34.3533 4.60317 34.4716 4.66876 34.59 4.73425C34.6818 4.78688 34.6818 4.78688 34.7754 4.84058C35.0818 5.01285 35.3967 5.1657 35.711 5.32111C36.1949 5.56386 36.6774 5.80943 37.1592 6.05664C37.3623 6.16081 37.5654 6.26496 37.7686 6.36906C37.8189 6.39486 37.8693 6.42066 37.9212 6.44725C38.5376 6.76279 39.1554 7.07157 39.7841 7.35927C40.2057 7.55241 40.6158 7.76593 41.0245 7.98734C41.1185 8.03688 41.2125 8.08636 41.3065 8.13572C41.3155 10.9674 41.3245 13.799 41.3334 16.6307C41.3345 16.9647 41.3356 17.2988 41.3366 17.6328C41.3368 17.6993 41.337 17.7658 41.3373 17.8343C41.3407 18.9122 41.3441 19.99 41.3475 21.0679C41.351 22.1733 41.3545 23.2787 41.358 24.3841C41.3602 25.0665 41.3624 25.749 41.3645 26.4315C41.366 26.899 41.3675 27.3666 41.369 27.8341C41.3698 28.1042 41.3707 28.3742 41.3715 28.6442C41.3725 28.9365 41.3734 29.2289 41.3743 29.5212C41.3746 29.6071 41.3749 29.6931 41.3752 29.7817C41.3754 29.8596 41.3756 29.9376 41.3759 30.0179C41.3761 30.0855 41.3763 30.153 41.3765 30.2226C41.3769 30.3535 41.377 30.4845 41.377 30.6155C41.2609 30.7376 41.1217 30.7097 40.9615 30.7195C40.8872 30.7242 40.8129 30.729 40.7364 30.7339C40.6139 30.7413 40.6139 30.7413 40.4889 30.7488C40.3142 30.7601 40.1394 30.7714 39.9647 30.7828C39.8723 30.7888 39.78 30.7947 39.6848 30.8008C37.8896 30.9173 36.1073 31.0769 34.3276 31.3574C34.2462 31.3701 34.2462 31.3701 34.1631 31.383C32.647 31.6202 31.1635 31.9366 29.675 32.3219C29.0818 32.4688 29.0818 32.4688 28.4766 32.6186C28.4998 30.8314 28.5231 29.0441 28.5471 27.2027C29.9437 26.9477 29.9437 26.9477 30.384 26.8676C30.4991 26.8465 30.6142 26.8254 30.7293 26.8042C30.7891 26.7934 30.8489 26.7826 30.9106 26.7714C30.9678 26.7609 31.025 26.7503 31.084 26.7395C31.1336 26.7304 31.1832 26.7214 31.2343 26.712C31.3818 26.683 31.3818 26.683 31.5783 26.6092C31.3892 26.2338 31.1966 25.8615 30.986 25.4989C30.9572 25.4493 30.9284 25.3997 30.8987 25.3486C30.8412 25.2502 30.7834 25.1521 30.7251 25.0542C30.5209 24.7045 30.5209 24.7045 30.5209 24.4577C30.563 24.4431 30.605 24.4286 30.6484 24.4136C31.1484 24.2322 31.6206 24.0069 32.0954 23.7634C32.4807 23.5674 32.4807 23.5674 32.6357 23.5674C32.6242 23.5244 32.6127 23.4814 32.6009 23.437C32.5457 23.1796 32.558 22.921 32.5608 22.6585C32.5611 22.6033 32.5615 22.548 32.5618 22.491C32.5626 22.3552 32.5639 22.2194 32.5652 22.0836C31.9844 22.3168 31.4225 22.5892 30.8601 22.8672C30.6874 22.9524 30.5145 23.0375 30.3416 23.1225C30.266 23.1599 30.1904 23.1972 30.1125 23.2357C29.4257 23.5672 29.4257 23.5672 29.2121 23.5685C28.9719 23.463 28.805 23.2927 28.622 23.1037C28.5509 23.0321 28.4798 22.9606 28.4085 22.8892C28.3738 22.8539 28.339 22.8186 28.3031 22.7821C28.1917 22.6743 28.0755 22.577 27.9564 22.4789C27.8954 22.4219 27.8344 22.3649 27.7716 22.3061C27.7716 22.2327 27.7716 22.1592 27.7716 22.0836C28.8523 21.5616 29.9386 21.0538 31.0272 20.5503C31.2149 20.4633 31.4025 20.376 31.5901 20.2887C31.7135 20.2315 31.8372 20.1749 31.961 20.1183C32.0314 20.0856 32.1019 20.0529 32.1745 20.0193C32.2353 19.9914 32.296 19.9635 32.3586 19.9347C32.5064 19.869 32.5064 19.869 32.5652 19.7095C32.5711 19.602 32.5728 19.4943 32.5721 19.3866C32.5719 19.3235 32.5717 19.2604 32.5714 19.1953C32.5708 19.1294 32.5702 19.0634 32.5696 18.9954C32.5693 18.9288 32.569 18.8623 32.5687 18.7937C32.5678 18.6291 32.5667 18.4645 32.5652 18.2998C32.5102 18.327 32.4551 18.3542 32.3984 18.3821C30.5385 19.2976 28.6749 20.2008 26.7847 21.0449C26.6671 20.9446 26.5496 20.8441 26.4322 20.7435C26.3668 20.6876 26.3014 20.6316 26.234 20.574C26.1813 20.5263 26.1813 20.5263 26.1275 20.4776C26.0089 20.3727 26.0089 20.3727 25.8662 20.2838C25.6085 20.0961 25.4664 19.9534 25.3942 19.6258C25.3757 19.3277 25.3755 19.0349 25.3813 18.7365C25.3814 18.6224 25.3814 18.5083 25.381 18.3941C25.3809 18.0854 25.3842 17.7768 25.3881 17.4681C25.3917 17.1451 25.392 16.8221 25.3927 16.4991C25.3944 15.888 25.399 15.2769 25.4047 14.6657C25.411 13.9697 25.4141 13.2738 25.4169 12.5778C25.4228 11.1465 25.4327 9.71532 25.4453 8.2841C25.6242 8.18962 25.8032 8.09522 25.9821 8.00085C26.0323 7.97436 26.0824 7.94786 26.1341 7.92056C26.5602 7.69601 26.9902 7.48189 27.4236 7.27326C27.5006 7.23599 27.5777 7.19872 27.657 7.16032C28.4423 6.78127 29.2299 6.40773 30.0175 6.03404C30.5767 5.76871 31.1357 5.50294 31.6943 5.23632C31.7946 5.18847 31.895 5.14067 31.9953 5.09293C32.0903 5.04775 32.1852 5.00248 32.2801 4.95713C32.3701 4.9142 32.4601 4.87153 32.5503 4.82912C32.8099 4.70581 33.0531 4.56588 33.2988 4.41489C33.6103 4.25001 33.7725 4.27457 34.0781 4.44099ZM31.9881 7.8436C31.9114 7.87923 31.9114 7.87923 31.8332 7.91558C31.4774 8.08177 31.1244 8.25368 30.7724 8.42872C30.456 8.58521 30.1375 8.73669 29.8182 8.88661C29.7738 8.90744 29.7295 8.92827 29.6838 8.94973C29.4602 9.05472 29.2365 9.15944 29.0127 9.26383C28.4739 9.51641 27.9449 9.78317 27.4191 10.0647C27.3959 10.5788 27.3726 11.093 27.3487 11.6227C27.6769 11.5075 27.9868 11.3802 28.3012 11.2314C28.3518 11.2077 28.4024 11.1839 28.4546 11.1595C28.6191 11.0822 28.7836 11.0047 28.948 10.9271C29.0618 10.8736 29.1756 10.8202 29.2895 10.7667C29.5193 10.6587 29.7491 10.5507 29.9789 10.4426C30.2807 10.3006 30.5829 10.1594 30.8852 10.0186C30.929 9.99816 30.9729 9.97772 31.0181 9.95667C31.2212 9.86199 31.4243 9.76738 31.6275 9.6729C31.6991 9.63951 31.7706 9.60612 31.8443 9.57172C31.9057 9.54314 31.9671 9.51456 32.0303 9.48512C32.2343 9.38653 32.4349 9.28007 32.6357 9.17439C32.6357 8.66025 32.6357 8.14611 32.6357 7.61639C32.4015 7.61639 32.1991 7.7446 31.9881 7.8436ZM34.821 7.61639C34.7345 7.88952 34.7376 8.14345 34.7373 8.42785C34.7365 8.48097 34.7356 8.5341 34.7347 8.58884C34.7331 8.98132 34.7331 8.98132 34.8915 9.32277C35.0986 9.44718 35.0986 9.44718 35.3522 9.55027C35.4223 9.58094 35.4223 9.58094 35.4938 9.61223C35.6466 9.67895 35.8 9.74429 35.9534 9.80965C36.112 9.87848 36.2706 9.94766 36.4291 10.0169C36.5361 10.0635 36.6432 10.1101 36.7503 10.1566C37.3187 10.4037 37.8801 10.6669 38.4405 10.9335C38.507 10.9648 38.5735 10.9961 38.642 11.0283C38.6992 11.0555 38.7564 11.0827 38.8153 11.1107C38.988 11.1807 39.1494 11.2251 39.3327 11.2517C39.4913 11.0848 39.4229 10.7061 39.4252 10.482C39.4272 10.417 39.4293 10.3519 39.4314 10.2849C39.4323 10.1911 39.4323 10.1911 39.4332 10.0954C39.4342 10.038 39.4352 9.98056 39.4363 9.92141C39.415 9.75959 39.415 9.75959 39.292 9.65143C39.0733 9.51562 38.8467 9.40669 38.614 9.30104C38.5398 9.26683 38.5398 9.26683 38.4642 9.23194C38.3045 9.15829 38.1445 9.08519 37.9845 9.0121C37.8749 8.96173 37.7653 8.91133 37.6557 8.86089C37.4934 8.78621 37.3311 8.71155 37.1688 8.63705C36.8805 8.50471 36.5928 8.37118 36.3061 8.23513C36.2492 8.20813 36.1923 8.18113 36.1336 8.15331C36.0359 8.1068 35.9383 8.06008 35.8408 8.01308C35.508 7.85527 35.1685 7.73247 34.821 7.61639ZM34.7505 11.1775C34.7403 11.4449 34.7341 11.7122 34.7285 11.9797C34.7256 12.0557 34.7226 12.1317 34.7196 12.21C34.7164 12.4155 34.719 12.6069 34.7505 12.8097C34.8825 12.9708 34.8825 12.9708 35.103 13.0323C35.204 13.08 35.3048 13.1284 35.4054 13.1772C35.5306 13.2343 35.656 13.2911 35.7815 13.3476C35.8499 13.3786 35.9182 13.4096 35.9887 13.4415C36.1441 13.5118 36.2995 13.5821 36.455 13.6523C36.705 13.7652 36.9545 13.8792 37.204 13.9934C37.4287 14.096 37.6535 14.1983 37.8783 14.3006C37.9901 14.3515 38.1019 14.4026 38.2136 14.4537C38.3717 14.5261 38.53 14.598 38.6883 14.6697C38.736 14.6917 38.7838 14.7137 38.833 14.7364C39.0357 14.8277 39.1801 14.8871 39.4032 14.8871C39.4032 14.3729 39.4032 13.8588 39.4032 13.3291C37.904 12.5073 36.3361 11.794 34.7505 11.1775ZM32.0126 11.3955C31.9383 11.4302 31.9383 11.4302 31.8626 11.4656C31.6987 11.5424 31.5349 11.6196 31.3712 11.6969C31.2578 11.7503 31.1443 11.8037 31.0309 11.857C30.7333 11.9973 30.4358 12.138 30.1384 12.2788C29.9582 12.364 29.7779 12.4489 29.5975 12.5337C29.3104 12.6688 29.0237 12.8045 28.7372 12.9407C28.6282 12.9924 28.5192 13.0439 28.4101 13.0952C28.2578 13.1668 28.1058 13.2393 27.9539 13.312C27.9087 13.333 27.8635 13.3541 27.817 13.3758C27.5868 13.487 27.4932 13.5461 27.3487 13.7742C27.3293 13.9248 27.3293 13.9248 27.3349 14.0881C27.3353 14.1476 27.3358 14.2071 27.3363 14.2685C27.3374 14.3303 27.3386 14.3921 27.3398 14.4558C27.3405 14.5185 27.3411 14.5812 27.3418 14.6458C27.3434 14.8004 27.346 14.955 27.3487 15.1096C27.62 15.0626 27.8499 14.9778 28.1015 14.8616C28.1818 14.8247 28.262 14.7879 28.3447 14.7499C28.4327 14.7091 28.5207 14.6683 28.6087 14.6274C28.7003 14.5852 28.792 14.543 28.8836 14.5008C29.0839 14.4087 29.284 14.3163 29.4842 14.2238C29.8439 14.0579 30.2043 13.8934 30.5647 13.729C30.7537 13.6427 30.9426 13.5564 31.1316 13.47C31.2562 13.4131 31.3808 13.3562 31.5054 13.2994C31.6808 13.2194 31.8561 13.1392 32.0313 13.059C32.0844 13.0348 32.1374 13.0107 32.1921 12.9858C32.4309 12.8892 32.4309 12.8892 32.6357 12.7355C32.6418 12.6197 32.6433 12.5035 32.6426 12.3875C32.6424 12.3174 32.6421 12.2474 32.6419 12.1752C32.6413 12.1015 32.6407 12.0278 32.6401 11.9519C32.6398 11.8779 32.6395 11.804 32.6392 11.7277C32.6383 11.5443 32.6372 11.3609 32.6357 11.1775C32.4087 11.1775 32.2166 11.299 32.0126 11.3955ZM34.7505 14.8129C34.7505 15.3515 34.7505 15.8901 34.7505 16.4451C35.8805 16.9921 35.8805 16.9921 37.026 17.5007C37.5846 17.739 38.1342 17.9992 38.6841 18.2587C38.757 18.2928 38.8299 18.327 38.905 18.3622C38.9705 18.393 39.036 18.4239 39.1034 18.4557C39.2555 18.5316 39.2555 18.5316 39.4032 18.5224C39.4032 18.0083 39.4032 17.4941 39.4032 16.9644C38.6442 16.5497 37.8635 16.1988 37.0769 15.8469C36.9452 15.7878 36.8136 15.7286 36.682 15.6694C36.0394 15.3807 35.396 15.0942 34.7505 14.8129ZM32.0674 14.9474C31.591 15.1856 31.1099 15.4113 30.6266 15.6336C30.3535 15.7598 30.0805 15.8862 29.8075 16.0127C29.7158 16.0552 29.624 16.0977 29.5322 16.1402C29.2309 16.2797 28.9298 16.42 28.6291 16.5612C28.5307 16.6073 28.4322 16.6531 28.3336 16.6987C28.1953 16.7627 28.0574 16.8275 27.9195 16.8925C27.8001 16.9483 27.8001 16.9483 27.6783 17.0051C27.4722 17.1027 27.4722 17.1027 27.3487 17.3354C27.3294 17.4787 27.3294 17.4787 27.3349 17.633C27.3353 17.6892 27.3358 17.7454 27.3363 17.8033C27.3374 17.8615 27.3386 17.9198 27.3398 17.9799C27.3405 18.039 27.3411 18.0982 27.3418 18.1591C27.3434 18.305 27.346 18.4508 27.3487 18.5966C27.5953 18.6831 27.6216 18.6623 27.8457 18.5497C27.9041 18.5209 27.9625 18.4922 28.0227 18.4625C28.1187 18.4141 28.1187 18.4141 28.2166 18.3648C28.357 18.2958 28.4974 18.227 28.6379 18.1584C28.7138 18.1213 28.7897 18.0842 28.8679 18.046C29.2579 17.8581 29.6513 17.6785 30.045 17.4995C30.1813 17.4375 30.3175 17.3754 30.4537 17.3132C30.853 17.1313 31.2529 16.9515 31.656 16.7789C31.7189 16.7518 31.7819 16.7247 31.8467 16.6968C31.961 16.6479 32.0755 16.5998 32.1904 16.5524C32.3178 16.4979 32.442 16.4352 32.5652 16.3709C32.6316 16.1614 32.644 16.0349 32.6426 15.8182C32.6424 15.7553 32.6421 15.6925 32.6419 15.6277C32.6413 15.5623 32.6407 15.4969 32.6401 15.4296C32.6398 15.3634 32.6395 15.2971 32.6392 15.2289C32.6383 15.0655 32.6372 14.9021 32.6357 14.7387C32.4185 14.7387 32.2626 14.8484 32.0674 14.9474ZM34.821 18.4482C34.6617 18.6159 34.7242 18.9884 34.7197 19.2133C34.7165 19.2777 34.7133 19.3421 34.7099 19.4085C34.7089 19.4708 34.7078 19.5331 34.7068 19.5973C34.705 19.6543 34.7032 19.7114 34.7014 19.7701C34.7629 19.9727 34.8574 20.0426 35.0279 20.1498C35.3552 20.3274 35.6938 20.4773 36.0327 20.6284C36.1155 20.6657 36.1984 20.703 36.2838 20.7414C36.4587 20.8199 36.6336 20.8982 36.8086 20.9762C37.0321 21.0758 37.2553 21.1763 37.4784 21.277C37.6924 21.3735 37.9067 21.4693 38.121 21.5651C38.2407 21.6191 38.2407 21.6191 38.3627 21.6742C38.475 21.724 38.475 21.724 38.5894 21.7748C38.6549 21.8041 38.7203 21.8333 38.7877 21.8635C39.014 21.9544 39.014 21.9544 39.4032 22.0094C39.4032 21.5197 39.4032 21.0301 39.4032 20.5256C38.8445 20.2235 38.2752 19.9559 37.6981 19.6956C37.558 19.6321 37.418 19.5687 37.278 19.5052C37.1838 19.4625 37.0897 19.4199 36.9956 19.3773C36.693 19.2403 36.3912 19.1018 36.0897 18.9623C36.0149 18.9278 35.9402 18.8933 35.8632 18.8578C35.7233 18.7931 35.5834 18.7282 35.4436 18.6631C35.3817 18.6345 35.3199 18.606 35.2561 18.5766C35.2024 18.5517 35.1487 18.5267 35.0933 18.501C34.9635 18.4394 34.9635 18.4394 34.821 18.4482ZM34.821 22.0094C34.821 22.5235 34.821 23.0377 34.821 23.5674C35.5882 23.9836 36.3683 24.3454 37.165 24.6942C37.2836 24.7464 37.4022 24.7987 37.5207 24.8511C37.7957 24.9723 38.0709 25.0927 38.3464 25.2126C38.4706 25.2668 38.5947 25.3213 38.7187 25.376C38.8127 25.4168 38.8127 25.4168 38.9086 25.4584C38.9596 25.4807 39.0107 25.503 39.0633 25.526C39.2026 25.5821 39.2026 25.5821 39.4032 25.5705C39.4051 25.3804 39.4065 25.1903 39.4076 25.0002C39.4085 24.9199 39.4085 24.9199 39.4094 24.838C39.41 24.6865 39.4067 24.535 39.4032 24.3835C39.4014 24.2908 39.4014 24.2908 39.3995 24.1962C39.3442 23.9877 39.3442 23.9877 39.1143 23.8744C39.0167 23.8299 38.9184 23.787 38.8197 23.7453C38.7668 23.7217 38.7139 23.698 38.6594 23.6737C38.4863 23.5967 38.3125 23.5218 38.1387 23.4468C38.0199 23.3944 37.9012 23.3419 37.7826 23.2893C37.5439 23.1837 37.305 23.0788 37.0657 22.9747C36.7583 22.8406 36.4518 22.7042 36.1458 22.5664C35.677 22.3556 35.677 22.3556 35.2077 22.1462C35.1478 22.1195 35.088 22.0929 35.0264 22.0655C34.9048 22.0048 34.9048 22.0048 34.821 22.0094ZM34.8915 25.6447C34.8915 26.1344 34.8915 26.624 34.8915 27.1285C35.818 27.5983 36.7575 28.0263 37.7067 28.4427C37.904 28.5298 38.1005 28.6186 38.2967 28.7083C38.4041 28.7567 38.5115 28.8051 38.6189 28.8535C38.6666 28.8757 38.7143 28.8979 38.7635 28.9209C38.9533 29.0054 39.0865 29.0624 39.2936 29.0331C39.3297 29.0167 39.3659 29.0002 39.4032 28.9833C39.4051 28.8179 39.4064 28.6525 39.4076 28.4871C39.4084 28.3951 39.4092 28.303 39.41 28.2081C39.4043 27.884 39.4043 27.884 39.3327 27.5737C39.1609 27.4483 39.1609 27.4483 38.9375 27.3604C38.8531 27.323 38.7686 27.2855 38.6816 27.247C38.5888 27.2075 38.4959 27.168 38.403 27.1285C38.3083 27.0871 38.2136 27.0456 38.119 27.0039C37.9713 26.9388 37.8235 26.8739 37.6755 26.8096C37.3197 26.655 36.9665 26.4951 36.6142 26.3319C36.5658 26.3095 36.5175 26.2871 36.4676 26.264C36.2791 26.1768 36.0906 26.0896 35.9023 26.0019C35.7723 25.9414 35.6421 25.8816 35.5119 25.8218C35.4379 25.7875 35.3639 25.7533 35.2876 25.7179C35.1029 25.6316 35.1029 25.6316 34.8915 25.6447Z" fill="#C4B152"/>
<rect x="14.0988" y="23.9636" width="2.3968" height="2.52248" fill="#C4B152"/>
<rect x="14.0988" y="28.3408" width="2.3968" height="2.52248" fill="#C4B152"/>
<rect x="18.0465" y="23.9636" width="2.3968" height="2.52248" fill="#C4B152"/>
<rect x="18.0465" y="28.3408" width="2.3968" height="2.52248" fill="#C4B152"/>
</svg>
