<svg width="112" height="105" viewBox="0 0 112 105" fill="none" xmlns="http://www.w3.org/2000/svg">
<path d="M90.2622 1.01892C89.6622 0.366506 88.8485 0 88 0C87.1515 0 86.3378 0.366506 85.7378 1.01892L64.4692 24.1475C64.3204 24.3093 64.2024 24.5014 64.1219 24.7128C64.0414 24.9241 64 25.1507 64 25.3795C64 25.6083 64.0414 25.8348 64.1219 26.0462C64.2024 26.2576 64.3204 26.4496 64.4692 26.6114C64.7696 26.9382 65.177 27.1217 65.6019 27.1217C65.8122 27.1217 66.0206 27.0767 66.2149 26.9891C66.4093 26.9015 66.5858 26.7732 66.7346 26.6114L68.8016 24.3598V42.7799C68.8016 44.1643 69.3073 45.4921 70.2074 46.4711C71.1075 47.45 72.3283 48 73.6012 48H102.399C103.672 48 104.893 47.45 105.793 46.4711C106.693 45.4921 107.198 44.1643 107.198 42.7799V24.3598L109.265 26.6114C109.566 26.9382 109.973 27.1217 110.398 27.1217C110.823 27.1217 111.23 26.9382 111.531 26.6114C111.831 26.2847 112 25.8416 112 25.3795C112 24.9174 111.831 24.4743 111.531 24.1475L103.999 15.9589V4.499C103.999 4.03751 103.83 3.59493 103.53 3.26861C103.23 2.94229 102.823 2.75896 102.399 2.75896H99.1991C98.7747 2.75896 98.3678 2.94229 98.0678 3.26861C97.7677 3.59493 97.5992 4.03751 97.5992 4.499V8.99874L90.2622 1.01892ZM103.999 20.8797V42.7799C103.999 43.2414 103.83 43.684 103.53 44.0103C103.23 44.3366 102.823 44.5199 102.399 44.5199H73.6012C73.1769 44.5199 72.77 44.3366 72.4699 44.0103C72.1699 43.684 72.0013 43.2414 72.0013 42.7799V20.8797L88 3.47934L103.999 20.8797Z" fill="#C4B152"/>
<path d="M37.5 105V98.75H72.9167V67.0833C72.9167 58.4937 69.8847 51.2076 63.8208 45.225C57.7569 39.2417 50.3722 36.25 41.6667 36.25C32.9611 36.25 25.5764 39.2417 19.5125 45.225C13.4486 51.2076 10.4167 58.4937 10.4167 67.0833V92.5H8.33333C6.04167 92.5 4.07986 91.684 2.44792 90.0521C0.815972 88.4201 0 86.4583 0 84.1667V75.8333C0 74.375 0.364583 73.0035 1.09375 71.7188C1.82292 70.434 2.84722 69.4097 4.16667 68.6458L4.47917 63.125C5.03472 58.4028 6.40625 54.0278 8.59375 50C10.7812 45.9722 13.5243 42.4653 16.8229 39.4792C20.1215 36.4931 23.9063 34.1667 28.1771 32.5C32.4479 30.8333 36.9444 30 41.6667 30C46.3889 30 50.8681 30.8333 55.1042 32.5C59.3403 34.1667 63.125 36.4757 66.4583 39.4271C69.7917 42.3785 72.5347 45.8681 74.6875 49.8958C76.8403 53.9236 78.2292 58.2986 78.8542 63.0208L79.1667 68.4375C80.4861 69.0625 81.5104 70 82.2396 71.25C82.9688 72.5 83.3333 73.8194 83.3333 75.2083V84.7917C83.3333 86.1806 82.9688 87.5 82.2396 88.75C81.5104 90 80.4861 90.9375 79.1667 91.5625V98.75C79.1667 100.469 78.5549 101.94 77.3313 103.164C76.1069 104.388 74.6354 105 72.9167 105H37.5ZM29.1479 74.7917C28.2576 74.7917 27.5174 74.4903 26.9271 73.8875C26.3368 73.2854 26.0417 72.5389 26.0417 71.6479C26.0417 70.7576 26.3431 70.0174 26.9458 69.4271C27.5479 68.8368 28.2944 68.5417 29.1854 68.5417C30.0757 68.5417 30.816 68.8431 31.4063 69.4458C31.9965 70.0479 32.2917 70.7944 32.2917 71.6854C32.2917 72.5757 31.9903 73.316 31.3875 73.9062C30.7854 74.4965 30.0389 74.7917 29.1479 74.7917ZM54.1479 74.7917C53.2576 74.7917 52.5174 74.4903 51.9271 73.8875C51.3368 73.2854 51.0417 72.5389 51.0417 71.6479C51.0417 70.7576 51.3431 70.0174 51.9458 69.4271C52.5479 68.8368 53.2944 68.5417 54.1854 68.5417C55.0757 68.5417 55.816 68.8431 56.4063 69.4458C56.9965 70.0479 57.2917 70.7944 57.2917 71.6854C57.2917 72.5757 56.9903 73.316 56.3875 73.9062C55.7854 74.4965 55.0389 74.7917 54.1479 74.7917ZM16.7708 69.375C16.2847 62.0139 18.5069 55.6944 23.4375 50.4167C28.3681 45.1389 34.5139 42.5 41.875 42.5C47.9167 42.5 53.1597 44.4965 57.6042 48.4896C62.0486 52.4826 64.7569 57.4653 65.7292 63.4375C59.5486 63.3681 53.9063 61.6319 48.8021 58.2292C43.6979 54.8264 39.7472 50.3472 36.95 44.7917C35.8583 50.3472 33.5243 55.2951 29.9479 59.6354C26.3715 63.9757 21.9792 67.2222 16.7708 69.375Z" fill="#48752C"/>
</svg>
